<?xml version="1.0" encoding="iso-8859-1"?>
<!-- Uploaded to: SVG Repo, www.svgrepo.com, Generator: SVG Repo Mixer Tools -->
<svg version="1.1" id="Layer_1" xmlns="http://www.w3.org/2000/svg" xmlns:xlink="http://www.w3.org/1999/xlink" 
	 viewBox="0 0 495 495" xml:space="preserve">
<g>
	<polygon style="fill:#00D7DF;" points="99.258,67.238 395.742,67.238 395.742,97.238 435.742,97.238 435.742,27.238 59.258,27.238 
		59.258,97.238 99.258,97.238 	"/>
	<path style="fill:#2488FF;" d="M59.671,206.415v-40H247.5V97.238H0v370.525h247.5V206.415H59.671z M141.167,398.585
		c-44.938,0-81.497-36.559-81.497-81.497c0-44.938,36.559-81.497,81.497-81.497s81.497,36.559,81.497,81.497
		C222.665,362.026,186.105,398.585,141.167,398.585z"/>
	<path style="fill:#005ECE;" d="M247.5,97.238v69.177h187.829v40H247.5v261.348H495V97.238H247.5z M353.833,398.585
		c-44.938,0-81.497-36.559-81.497-81.497c0-44.938,36.56-81.497,81.497-81.497s81.497,36.559,81.497,81.497
		C435.329,362.026,398.77,398.585,353.833,398.585z"/>
	<path style="fill:#9BFBFF;" d="M59.671,317.089c0,44.938,36.559,81.497,81.497,81.497V235.592
		C96.23,235.592,59.671,272.151,59.671,317.089z"/>
	<path style="fill:#9BFBFF;" d="M272.335,317.089c0,44.938,36.56,81.497,81.497,81.497V235.592
		C308.895,235.592,272.335,272.151,272.335,317.089z"/>
	<path style="fill:#46F8FF;" d="M141.167,235.592v162.994c44.938,0,81.497-36.559,81.497-81.497
		C222.665,272.151,186.105,235.592,141.167,235.592z"/>
	<path style="fill:#46F8FF;" d="M353.833,235.592v162.994c44.938,0,81.497-36.559,81.497-81.497
		C435.329,272.151,398.77,235.592,353.833,235.592z"/>
	<rect x="59.671" y="166.415" style="fill:#003068;" width="375.658" height="40"/>
</g>
</svg>